<svg id="settings-24px" xmlns="http://www.w3.org/2000/svg" width="29.035" height="29.035" viewBox="0 0 29.035 29.035">
  <path id="Path_7" data-name="Path 7" d="M0,0H29.035V29.035H0Z" fill="none"/>
  <path id="Path_8" data-name="Path 8" d="M22.6,15.151a8.558,8.558,0,0,0,.073-1.137,6.989,6.989,0,0,0-.085-1.137l2.456-1.911a.594.594,0,0,0,.145-.738L22.863,6.211a.591.591,0,0,0-.714-.266L19.258,7.106A8.546,8.546,0,0,0,17.3,5.969L16.863,2.9a.585.585,0,0,0-.581-.5H11.636a.573.573,0,0,0-.569.5l-.436,3.073a8.735,8.735,0,0,0-1.96,1.137L5.781,5.945a.578.578,0,0,0-.714.266L2.756,10.227a.55.55,0,0,0,.145.738l2.456,1.911a6.731,6.731,0,0,0-.024,2.274L2.877,17.063a.594.594,0,0,0-.145.738l2.323,4.017a.591.591,0,0,0,.714.266L8.66,20.922a8.546,8.546,0,0,0,1.96,1.137l.436,3.073a.6.6,0,0,0,.581.5h4.646a.564.564,0,0,0,.569-.5l.436-3.073a8.3,8.3,0,0,0,1.96-1.137l2.891,1.161a.578.578,0,0,0,.714-.266L25.174,17.8a.56.56,0,0,0-.145-.738Zm-8.638,3.218a4.355,4.355,0,1,1,4.355-4.355A4.368,4.368,0,0,1,13.959,18.369Z" transform="translate(0.558 0.504)"/>
</svg>
